<svg id="exclamation" width="13" height="24" viewBox="0 0 13 24" xmlns="http://www.w3.org/2000/svg">
    <path fill-rule="evenodd" clip-rule="evenodd" d="M2.5621 5.26802C2.57356 5.2666 2.58494 5.2652 2.59622 5.2638C3.54849 5.14596 4.42631 5.847 4.54693 6.82168L5.71658 16.2731C5.8372 17.2478 5.15676 18.1417 4.20449 18.2595C3.25221 18.3774 2.44613 17.7178 2.25377 16.7016C2.18966 16.363 1.95619 15.3503 1.66855 14.1026C1.09317 11.6068 0.301031 8.17077 0.214068 7.30871C0.0396292 5.57951 1.60614 5.38607 2.5621 5.26802ZM6.38387 21.734C6.50221 22.6903 5.82297 23.5614 4.86674 23.6797C3.91051 23.798 3.03941 23.1188 2.92107 22.1626C2.80273 21.2063 3.48198 20.3352 4.4382 20.2169C5.39443 20.0986 6.26554 20.7778 6.38387 21.734Z" />
    <path fill-rule="evenodd" clip-rule="evenodd" d="M7.32317 2.00923C7.36955 0.904158 8.26659 0.0360674 9.31659 0.0801373C10.3666 0.124207 12.8598 0.243988 12.7384 2.32805C12.6819 3.29705 11.0346 11.4607 10.6916 12.8853C10.3486 14.3099 9.74816 14.8585 8.69817 14.8144C7.64817 14.7703 6.82703 13.8301 6.87341 12.725L7.32317 2.00923ZM9.95947 18.9312C9.92075 19.8538 9.14147 20.5703 8.21891 20.5316C7.29635 20.4928 6.57985 19.7136 6.61857 18.791C6.65729 17.8684 7.43657 17.1519 8.35913 17.1907C9.28169 17.2294 9.99819 18.0087 9.95947 18.9312Z" />
</svg>
