<svg id="question" width="14" height="23" viewBox="0 0 14 23" xmlns="http://www.w3.org/2000/svg">
    <path fill-rule="evenodd" clip-rule="evenodd" d="M0.0725083 5.19383C1.05255 1.85826 4.29558 -0.469313 7.96627 0.0805072C11.0668 0.557018 13.5079 3.25114 13.9356 6.44009C14.342 9.39728 12.7519 10.8242 11.2172 12.2014C10.9353 12.4544 10.6551 12.7058 10.3896 12.9646C10.1758 13.1662 9.9798 13.3678 9.80161 13.5878C9.7927 13.5969 9.78379 13.6107 9.77488 13.6244C9.76597 13.6382 9.75706 13.6519 9.74816 13.6611C9.56997 13.881 9.39178 14.1192 9.24923 14.3758C9.23141 14.4033 9.21804 14.4308 9.20468 14.4583C9.19132 14.4858 9.17795 14.5133 9.16013 14.5408C8.99752 14.8359 8.86572 15.1575 8.7785 15.5111C8.64627 16.0473 8.21349 16.5018 7.66121 16.5018H6.09743C5.54515 16.5018 5.08887 16.0521 5.15806 15.5042C5.21925 15.0197 5.32324 14.5914 5.45381 14.2109C5.46162 14.1868 5.46601 14.1662 5.46997 14.1476C5.47505 14.1238 5.47944 14.1032 5.48945 14.0826C5.49836 14.0551 5.51172 14.0322 5.52508 14.0093C5.53845 13.9864 5.55181 13.9635 5.56072 13.936C5.68545 13.6061 5.84582 13.2945 6.00619 13.0196C6.0151 13.0013 6.02401 12.9875 6.03292 12.9738C6.04183 12.96 6.05074 12.9463 6.05965 12.928C6.05965 12.9188 6.0641 12.9142 6.06856 12.9096C6.07301 12.9051 6.07747 12.9005 6.07747 12.8913C6.68435 11.9513 7.49825 11.3075 8.2594 10.7054C9.35318 9.84019 10.338 9.06116 10.4431 7.61304C10.5856 5.83529 9.33832 4.13085 7.64553 3.7643C5.81019 3.3611 4.11739 4.47907 3.54719 6.1102C3.29772 6.80664 2.7097 7.33813 1.97913 7.33813H1.62275C0.535799 7.33813 -0.248231 6.25682 0.0725083 5.19383ZM7 23C8.10457 23 9 22.1046 9 21C9 19.8954 8.10457 19 7 19C5.89543 19 5 19.8954 5 21C5 22.1046 5.89543 23 7 23Z"/>
</svg>
